<svg width="8" height="16" viewBox="0 0 8 16" fill="none" xmlns="http://www.w3.org/2000/svg">
<path d="M1.69007 15.8162C1.30947 15.8156 0.940771 15.6792 0.646371 15.43C0.351971 15.1808 0.149972 14.8341 0.0746722 14.4485C-0.000727814 14.063 0.0552718 13.6625 0.233072 13.3148C0.410772 12.9671 0.699471 12.6934 1.05007 12.5405C1.86567 12.1823 2.56067 11.5833 3.04817 10.8187C3.53557 10.0539 3.79367 9.15747 3.79007 8.24183C3.79357 7.6207 3.67447 7.00535 3.44007 6.4335C3.20317 5.87819 2.86347 5.37619 2.44007 4.95583C2.03127 4.52059 1.54587 4.16988 1.01007 3.9225C0.656472 3.71852 0.388372 3.38661 0.257472 2.99059C0.126472 2.5946 0.141971 2.16256 0.300971 1.77766C0.459871 1.39277 0.750971 1.08224 1.11817 0.90589C1.48547 0.729531 1.90287 0.699823 2.29007 0.822479C3.46257 1.34102 4.49507 2.14734 5.29777 3.17149C6.10057 4.19561 6.64937 5.40668 6.89667 6.69969C7.14397 7.99259 7.08227 9.32838 6.71687 10.591C6.35157 11.8537 5.69357 13.0053 4.80007 13.9458C4.09427 14.6829 3.25497 15.2692 2.33007 15.6715C2.12827 15.7637 1.91067 15.8129 1.69007 15.8162Z" fill="#B3B3B3"/>
</svg>
