<svg width="13" height="31" viewBox="0 0 13 31" fill="none" xmlns="http://www.w3.org/2000/svg">
<path d="M2.00015 30.1114C1.65605 30.1122 1.31945 30.0077 1.03295 29.8108C0.746347 29.6141 0.522646 29.3338 0.390146 29.0058C0.299446 28.786 0.251547 28.5497 0.249147 28.3108C0.246847 28.0718 0.290047 27.8348 0.376447 27.613C0.462847 27.3914 0.590646 27.1895 0.752546 27.0189C0.914446 26.8483 1.10735 26.7123 1.32015 26.6187C2.73455 25.9992 4.01855 25.1006 5.10015 23.9734C7.33295 21.6528 8.58745 18.5141 8.59015 15.2417C8.57945 11.9649 7.31395 8.82568 5.07015 6.51006C3.98645 5.38276 2.70325 4.48118 1.29015 3.8544C0.862847 3.66542 0.525247 3.30945 0.351047 2.86417C0.176747 2.41891 0.180047 1.9205 0.360147 1.47773C0.446447 1.25676 0.574746 1.05598 0.737646 0.887299C0.900446 0.718622 1.09445 0.585501 1.30815 0.49585C1.52175 0.406199 1.75065 0.361849 1.98125 0.365436C2.21175 0.369024 2.43925 0.420474 2.65015 0.51673C6.34205 2.14459 9.27835 5.18981 10.8401 9.01073C11.6453 10.9718 12.0602 13.0804 12.0601 15.2108C12.0591 17.3399 11.6478 19.4475 10.8501 21.4107C10.0771 23.3086 8.95275 25.0321 7.54015 26.4844C6.14765 27.9661 4.48595 29.1495 2.65015 29.9668C2.44545 30.0606 2.22415 30.1099 2.00015 30.1114Z" fill="#B3B3B3"/>
</svg>
